<svg width="19" height="19" viewBox="0 0 19 19" fill="none" xmlns="http://www.w3.org/2000/svg">
<path d="M1.5 17.5H2.6L13.675 6.42499L12.575 5.32499L1.5 16.4V17.5ZM16.85 5.34999L13.65 2.14999L14.7 1.09999C14.9833 0.816654 15.3333 0.674988 15.75 0.674988C16.1667 0.674988 16.5167 0.816654 16.8 1.09999L17.9 2.19999C18.1833 2.48332 18.325 2.83332 18.325 3.24999C18.325 3.66665 18.1833 4.01665 17.9 4.29999L16.85 5.34999ZM15.8 6.39999L3.2 19H0V15.8L12.6 3.19999L15.8 6.39999ZM13.125 5.87499L12.575 5.32499L13.675 6.42499L13.125 5.87499Z" fill="black"/>
</svg>
